<svg width="152" height="100" viewBox="0 0 152 100" fill="none" xmlns="http://www.w3.org/2000/svg">
<g clip-path="url(#clip0_38_828)">
<rect width="152" height="100" rx="10" fill="#1A3AA2"/>
<g opacity="0.1" clip-path="url(#clip1_38_828)">
<path d="M129.667 20.0386H123.661V29.3109H129.667V20.0386Z" fill="#21214E"/>
<path d="M132.888 22.8136H120.519V12.8184C124.849 11.7601 128.983 11.6955 132.888 12.8184V22.8136Z" fill="#1A3AA2"/>
<path d="M133.03 12.8582C132.888 12.9503 132.736 13.0257 132.577 13.0828C132.152 13.2666 131.717 13.4249 131.274 13.5565C130.617 13.7599 129.946 13.9172 129.266 14.0272C128.434 14.1601 127.593 14.231 126.751 14.2395C125.908 14.2386 125.067 14.1758 124.233 14.0519C123.553 13.9472 122.881 13.7961 122.222 13.5996C121.778 13.4715 121.342 13.3174 120.916 13.1382C120.756 13.081 120.602 13.0078 120.456 12.9197C120.472 12.8828 121.14 13.1597 122.262 13.4581C122.92 13.6324 123.587 13.767 124.261 13.8611C125.085 13.9721 125.916 14.0286 126.748 14.0303C127.58 14.0221 128.411 13.9584 129.235 13.8396C129.907 13.7374 130.572 13.5956 131.227 13.415C132.353 13.1074 133.018 12.8213 133.03 12.8582Z" fill="#21214E"/>
<path d="M124.603 22.7859C124.547 22.7859 124.498 20.8662 124.498 18.5004C124.498 16.1347 124.547 14.2119 124.603 14.2119C124.659 14.2119 124.709 16.1316 124.709 18.5004C124.709 20.8693 124.662 22.7859 124.603 22.7859Z" fill="#21214E"/>
<path d="M126.956 22.8444C126.9 22.8444 126.851 20.9155 126.851 18.5374C126.851 16.1594 126.9 14.2305 126.956 14.2305C127.012 14.2305 127.062 16.1563 127.062 18.5374C127.062 20.9186 127.009 22.8444 126.956 22.8444Z" fill="#21214E"/>
<path d="M129.31 22.8044C129.254 22.8044 129.204 20.8755 129.204 18.4974C129.204 16.1193 129.254 14.1904 129.31 14.1904C129.366 14.1904 129.415 16.1193 129.415 18.4974C129.415 20.8755 129.369 22.8044 129.31 22.8044Z" fill="#21214E"/>
<path d="M131.271 22.8044C131.212 22.8044 131.166 20.7217 131.166 18.1498C131.166 15.5779 131.212 13.4983 131.271 13.4983C131.33 13.4983 131.377 15.581 131.377 18.1498C131.377 20.7186 131.33 22.8044 131.271 22.8044Z" fill="#21214E"/>
<path d="M122.381 22.7458C122.322 22.7458 122.275 20.66 122.275 18.0912C122.275 15.5224 122.322 13.4397 122.381 13.4397C122.44 13.4397 122.486 15.5224 122.486 18.0912C122.486 20.66 122.437 22.7458 122.381 22.7458Z" fill="#21214E"/>
<path d="M88.1969 34.6198L84.9409 37.4636L89.4251 42.492L92.6812 39.6481L88.1969 34.6198Z" fill="#21214E"/>
<path d="M91.285 34.6024L84.5798 40.4476L79.7583 35.0393C81.5955 32.4182 83.7995 30.4247 86.4636 29.1941L91.285 34.6024Z" fill="#1A3AA2"/>
<path d="M85.7019 39.4785C85.6646 39.5062 84.4989 38.2756 83.1 36.7374C81.7011 35.1992 80.5945 33.901 80.6318 33.8702C80.6691 33.8394 81.8348 35.0669 83.2337 36.6205C84.6326 38.1741 85.7392 39.4477 85.7019 39.4785Z" fill="#21214E"/>
<path d="M86.9798 38.3617C86.6971 38.1086 86.4362 37.8328 86.1995 37.5372C85.7332 37.0111 85.1022 36.2789 84.4089 35.4668L82.6433 33.3748L82.1117 32.738C81.9842 32.5842 81.9221 32.5103 81.9189 32.5011C81.9873 32.4365 83.1624 33.7317 84.5457 35.3499C85.2389 36.1651 85.8576 36.9096 86.2959 37.4541C86.5476 37.7384 86.7763 38.0418 86.9798 38.3617V38.3617Z" fill="#21214E"/>
<path d="M88.6801 36.8759C88.3962 36.6188 88.1342 36.3389 87.8968 36.0391C87.4274 35.5069 86.7932 34.7655 86.0969 33.9379L84.3281 31.8152L83.7996 31.1599C83.7309 31.0837 83.6695 31.0013 83.6162 30.9138C83.9159 31.1546 84.1861 31.4293 84.4213 31.7321C84.8938 32.2582 85.5342 32.9965 86.2306 33.8241C86.9269 34.6517 87.5486 35.4054 87.99 35.9591C88.2456 36.2451 88.4764 36.5518 88.6801 36.8759V36.8759Z" fill="#21214E"/>
<path d="M90.231 35.4854C90.1937 35.5193 89.0373 34.2549 87.6478 32.7013C86.2582 31.1477 85.1609 29.8341 85.2013 29.8002C85.2417 29.7664 86.395 31.0308 87.7845 32.569C89.1741 34.1072 90.2683 35.4516 90.231 35.4854Z" fill="#21214E"/>
<path d="M160.501 108.651C179.831 89.5212 179.831 58.5052 160.501 39.3751C141.17 20.245 109.83 20.245 90.4992 39.3751C71.1689 58.5052 71.1689 89.5212 90.4992 108.651C109.83 127.781 141.17 127.781 160.501 108.651Z" fill="#1A3AA2"/>
<path d="M157.656 105.836C175.416 88.2609 175.416 59.7655 157.656 42.19C139.897 24.6145 111.103 24.6145 93.3438 42.19C75.5844 59.7654 75.5844 88.2609 93.3438 105.836C111.103 123.412 139.897 123.412 157.656 105.836Z" fill="white"/>
<path d="M125.501 119.185C100.34 119.185 79.8701 98.9271 79.8701 74.0267C79.8701 49.1262 100.34 28.8557 125.501 28.8557C150.663 28.8557 171.133 49.1139 171.133 74.0144C171.133 98.9148 150.663 119.185 125.501 119.185ZM125.501 29.1757C100.511 29.1757 80.181 49.2954 80.181 74.0267C80.181 98.7579 100.511 118.878 125.501 118.878C150.492 118.878 170.822 98.7579 170.822 74.0267C170.822 49.2954 150.492 29.1634 125.501 29.1634V29.1757Z" fill="#21214E"/>
<path d="M96.9614 56.042C98.8577 50.2214 102.74 46.2836 107.885 42.8965C113.03 39.5093 120.043 38.2357 126.201 38.7525V75.0234L96.9614 56.042Z" fill="#1A3AA2"/>
<g opacity="0.8">
<path d="M96.9614 56.042C98.8577 50.2214 102.74 46.2836 107.885 42.8965C113.03 39.5093 120.043 38.2357 126.201 38.7525V75.0234L96.9614 56.042Z" fill="white"/>
</g>
<path d="M122.262 74.8233L101.808 59.0967L125.763 70.0302L126.468 74.1834L122.262 74.8233Z" fill="#1A3AA2"/>
<g opacity="0.4">
<path d="M101.808 59.0967L123.167 71.5285L125.763 70.0302L101.808 59.0967Z" fill="black"/>
</g>
<path d="M128.09 78.1543C130.265 77.2717 131.304 74.8117 130.413 72.6596C129.521 70.5076 127.035 69.4785 124.86 70.3611C122.686 71.2437 121.646 73.7038 122.538 75.8558C123.43 78.0079 125.915 79.037 128.09 78.1543Z" fill="#FAFAFA"/>
<path d="M126.478 70.0397C126.132 70.0786 125.788 70.1362 125.449 70.2119C124.531 70.4546 123.723 70.9965 123.155 71.7501C122.763 72.2623 122.498 72.8589 122.384 73.4914C122.253 74.2129 122.317 74.9559 122.57 75.6449C122.854 76.408 123.359 77.0715 124.022 77.5523C124.734 78.07 125.594 78.3493 126.478 78.3493C127.361 78.3493 128.222 78.07 128.934 77.5523C129.273 77.3112 129.571 77.0184 129.816 76.6847C130.059 76.3692 130.251 76.0184 130.385 75.6449C130.584 75.1014 130.667 74.5229 130.628 73.9462C130.588 73.3695 130.428 72.8072 130.158 72.295C129.887 71.7829 129.511 71.3321 129.055 70.9713C128.599 70.6106 128.071 70.3478 127.507 70.1996C127.167 70.1236 126.824 70.0661 126.478 70.0274C126.831 70.0025 127.186 70.0336 127.529 70.1196C128.482 70.3435 129.328 70.887 129.922 71.6578C130.336 72.1854 130.618 72.802 130.746 73.4575C130.891 74.2135 130.83 74.994 130.569 75.7187C130.429 76.1101 130.229 76.4783 129.978 76.8108C129.72 77.1667 129.405 77.4784 129.046 77.7338C128.3 78.2812 127.397 78.5768 126.469 78.5768C125.54 78.5768 124.637 78.2812 123.891 77.7338C123.198 77.2287 122.671 76.5304 122.381 75.7279C122.119 75.0034 122.057 74.2226 122.204 73.4668C122.36 72.6647 122.747 71.9242 123.317 71.3339C123.888 70.7435 124.618 70.3284 125.421 70.1381C125.766 70.049 126.122 70.0158 126.478 70.0397V70.0397Z" fill="#21214E"/>
<path d="M126.478 71.1194C127.104 71.1194 127.715 71.3029 128.236 71.6467C128.757 71.9904 129.163 72.4791 129.403 73.0511C129.643 73.623 129.707 74.2525 129.586 74.8602C129.465 75.4679 129.165 76.0265 128.723 76.4655C128.282 76.9045 127.719 77.2043 127.105 77.327C126.492 77.4497 125.855 77.3898 125.276 77.1549C124.697 76.92 124.201 76.5206 123.851 76.0071C123.502 75.4936 123.313 74.889 123.31 74.2696C123.308 73.8567 123.388 73.4474 123.547 73.0652C123.705 72.6831 123.938 72.3357 124.232 72.043C124.527 71.7503 124.877 71.518 125.262 71.3595C125.647 71.201 126.06 71.1194 126.478 71.1194V71.1194Z" fill="#21214E"/>
<path d="M126.269 73.0175C126.269 73.0175 125.396 45.8928 126.664 40.1707C126.664 40.1707 128.784 56.6141 126.269 73.0175Z" fill="#21214E"/>
<path d="M123.792 115.62H123.736L123.857 112.236H123.956L123.792 115.62ZM140.855 112.876L139.577 109.738L139.674 109.701L140.901 112.86L140.855 112.876ZM107.008 111.264L106.958 111.236L108.479 108.206L108.563 108.249L107.008 111.264ZM155.35 103.496L152.913 101.124L152.975 101.059L155.394 103.453L155.35 103.496ZM93.4889 100.552L93.4391 100.49L96.0877 98.3365L96.1343 98.3919L93.4889 100.552ZM164.763 89.0735L161.558 87.8952L161.592 87.806L164.782 89.0212L164.763 89.0735ZM85.5246 85.2895L85.5028 85.2033L88.8073 84.3358V84.3942L85.5246 85.2895ZM164.002 72.2855V72.2301L167.421 72.0271V72.1224L164.002 72.2855ZM164.002 72.224V72.1501L167.421 71.944V72.0209L164.002 72.224ZM87.9027 68.6645L84.5205 68.1569V68.08L87.8996 68.5907L87.9027 68.6645ZM159.808 57.0172L159.774 56.9557L162.814 55.4021L162.848 55.4698L159.808 57.0172ZM93.5262 53.9408L90.6383 52.0981L90.6787 52.0396L93.5604 53.8609L93.5262 53.9408ZM149.73 44.8408L149.671 44.7947L151.806 42.152L151.865 42.1982L149.73 44.8408ZM104.711 42.7335L102.846 39.9032L102.896 39.8693L104.795 42.6842L104.711 42.7335ZM135.514 37.7405L135.449 37.722L136.307 34.4456L136.391 34.4672L135.514 37.7405ZM119.548 36.9898L118.986 33.6611H119.063L119.617 37.0021L119.548 36.9898Z" fill="#21214E"/>
</g>
<path d="M73.0002 52.6666C80.8242 52.6666 87.1668 46.3239 87.1668 38.4999C87.1668 30.6759 80.8242 24.3333 73.0002 24.3333C65.1762 24.3333 58.8335 30.6759 58.8335 38.4999C58.8335 46.3239 65.1762 52.6666 73.0002 52.6666Z" fill="white" stroke="white" stroke-width="2" stroke-linejoin="round"/>
<path d="M68 19.3333H78" stroke="white" stroke-width="2" stroke-linecap="round" stroke-linejoin="round"/>
<path d="M73 31.8333V38.4999" stroke="#2C67FF" stroke-width="2" stroke-linecap="round" stroke-linejoin="round"/>
<path d="M79.6667 38.5H73" stroke="#2C67FF" stroke-width="2" stroke-linecap="round" stroke-linejoin="round"/>
<path d="M73 19.3333V22.6666" stroke="white" stroke-width="2" stroke-linecap="round" stroke-linejoin="round"/>
</g>
<defs>
<clipPath id="clip0_38_828">
<rect width="152" height="100" rx="10" fill="white"/>
</clipPath>
<clipPath id="clip1_38_828">
<rect width="99" height="111" fill="white" transform="translate(76 12)"/>
</clipPath>
</defs>
</svg>
